<svg xmlns="http://www.w3.org/2000/svg" viewBox="0 0 64.4 40">
  <path d="M64.3 29.4c-.2 1.5-.7 3-1.6 4.3-2.2 3.5-6.3 5.4-10.4 4.9-.5-.1-.9-.2-1.4-.3-1.8-.5-3.5-1.5-4.8-2.8-3 3.1-7.2 4.5-11.5 4-.5-.1-.9-.2-1.4-.3-.4-.1-.7-.2-1.1-.3-1.7-.6-3.4-1.5-4.7-2.7-7.2 5.8-17.8 4.7-23.6-2.5S-.9 15.9 6.3 10.1c4.7-3.8 11-4.8 16.6-2.6C24.2 3.3 28 .3 32.4 0h1c.4 0 .7 0 1.1.1 4.2.5 7.7 3.5 8.9 7.6l.3 1.5c3.7-1.2 7.6.8 8.8 4.5.3 1 .4 2.1.3 3.1 0 .2-.1.4-.1.6h.9c5.9 0 10.7 4.8 10.7 10.7.1.4 0 .9 0 1.3z"/>
  <path d="M63.3 29.3c-.2 1.4-.7 2.7-1.4 3.9-2 3.2-5.7 5-9.5 4.5-.4-.1-.8-.1-1.3-.3-2-.5-3.8-1.7-5.1-3.3-2.8 3.4-7 5-11.3 4.5-.4-.1-.9-.1-1.3-.3V27c0-1.7-1.4-3.1-3.1-3.1-1 0-2 .5-2.5 1.3l-.1.1c-.3.5-.7.8-1.2 1.2-2.1 1.4-5 .9-6.4-1.2-1.4-2.1-.9-5 1.2-6.4 2.1-1.4 5-.9 6.4 1.2l.4.4c1.2 1.2 3.2 1.3 4.4.1.6-.6.9-1.4.9-2.2L33.5 8V1c.3 0 .7 0 1 .1 3.8.5 7 3.2 8.1 6.9.2.9.4 1.7.4 2.6 2.9-1.7 6.6-.7 8.3 2.2.7 1.2.9 2.5.8 3.8-.1.7-.3 1.3-.6 1.9 5.2-1.3 10.5 1.9 11.8 7.1.1 1.3.2 2.5 0 3.7z" fill="#ffe587"/>
  <path d="M32.5 1v7l-.1 10.4c0 1.2-1 2.2-2.2 2.1-.7 0-1.4-.4-1.8-.9-1.7-2.5-5.2-3.2-7.7-1.5-2.5 1.7-3.2 5.2-1.5 7.7 1.7 2.5 5.2 3.2 7.7 1.5.5-.4 1-.9 1.5-1.5.7-1 2-1.2 3-.5.6.4.9 1.1.9 1.8v11c-1.9-.6-3.6-1.7-5-3.1-6.5 5.8-16.5 5.3-22.4-1.2S-.4 17.3 6.1 11.4C11 7.1 17.8 6.1 23.6 8.9c.8-4.4 4.5-7.6 8.9-7.9z" fill="#4075ff"/>
</svg>
